<svg width="133" height="39" viewBox="0 0 133 39" fill="none" xmlns="http://www.w3.org/2000/svg">
<g filter="url(#filter0_d)">
<path d="M11.2227 25H8.05859V5.69922H11.2227V25ZM4.36719 0.636719H15.0547V3.18555H4.36719V0.636719ZM34.7293 15.46C34.2253 14.956 33.9733 14.344 33.9733 13.624C33.9733 12.904 34.2253 12.292 34.7293 11.788C35.2333 11.26 35.7973 10.996 36.4213 10.996C37.0693 10.996 37.6093 11.164 38.0413 11.5C38.4973 11.812 38.8213 12.22 39.0133 12.724C39.0373 12.748 39.0493 12.772 39.0493 12.796V12.832C39.3373 13.456 39.4813 14.32 39.4813 15.424C39.4813 16.504 39.4093 17.428 39.2653 18.196C39.1213 18.964 38.8573 19.78 38.4733 20.644C38.0893 21.508 37.6213 22.288 37.0693 22.984C36.5173 23.656 35.7733 24.22 34.8373 24.676C33.9253 25.108 32.9053 25.324 31.7773 25.324C29.8573 25.324 28.4173 24.628 27.4573 23.236C26.3053 24.628 24.7333 25.324 22.7413 25.324C21.2053 25.324 19.9453 24.844 18.9613 23.884C18.0013 22.924 17.5213 21.82 17.5213 20.572C17.5213 19.324 17.7373 17.788 18.1693 15.964C18.6253 14.116 18.8773 12.7 18.9253 11.716C18.5413 11.74 18.1693 11.884 17.8093 12.148C17.4493 12.388 17.1853 12.628 17.0173 12.868L16.7653 13.228L16.2253 12.796C16.2973 12.652 16.4053 12.484 16.5493 12.292C16.6933 12.1 17.0533 11.836 17.6293 11.5C18.2293 11.164 18.9733 10.996 19.8613 10.996C20.7493 10.996 21.4573 11.284 21.9853 11.86C22.5373 12.436 22.8133 13.168 22.8133 14.056C22.8133 14.944 22.5733 16.324 22.0933 18.196C21.6133 20.044 21.3733 21.352 21.3733 22.12C21.3733 22.864 21.5413 23.452 21.8773 23.884C22.2373 24.316 22.7413 24.532 23.3893 24.532C24.7813 24.532 25.9693 23.812 26.9533 22.372C26.6893 21.7 26.5573 20.92 26.5573 20.032C26.5573 19.144 26.7733 17.788 27.2053 15.964C27.6613 14.116 27.9133 12.7 27.9613 11.716C27.5773 11.74 27.2053 11.884 26.8453 12.148C26.4853 12.388 26.2213 12.628 26.0533 12.868L25.8013 13.228L25.2613 12.796C25.3333 12.652 25.4413 12.484 25.5853 12.292C25.7293 12.1 26.0893 11.836 26.6653 11.5C27.2653 11.164 28.0093 10.996 28.8973 10.996C29.7853 10.996 30.4933 11.284 31.0213 11.86C31.5733 12.436 31.8493 13.168 31.8493 14.056C31.8493 14.944 31.6093 16.324 31.1293 18.196C30.6493 20.044 30.4093 21.352 30.4093 22.12C30.4093 22.864 30.5773 23.452 30.9133 23.884C31.2733 24.316 31.7773 24.532 32.4253 24.532C34.0333 24.532 35.4733 23.668 36.7453 21.94C38.0173 20.188 38.6533 18.22 38.6533 16.036C38.6533 15.868 38.6293 15.616 38.5813 15.28C38.0773 15.904 37.4293 16.216 36.6373 16.216C35.8693 16.216 35.2333 15.964 34.7293 15.46ZM49.0016 10.996C52.0496 10.996 53.5736 12.208 53.5736 14.632C53.5736 16.144 52.8536 17.296 51.4136 18.088C49.9976 18.856 47.9696 19.252 45.3296 19.276C45.2816 20.14 45.2576 20.824 45.2576 21.328C45.2576 22.408 45.4976 23.212 45.9776 23.74C46.4816 24.244 47.1056 24.496 47.8496 24.496C48.5936 24.496 49.2656 24.352 49.8656 24.064C50.4896 23.776 50.9816 23.44 51.3416 23.056C51.7016 22.648 52.0136 22.228 52.2776 21.796C52.7576 21.004 52.9976 20.5 52.9976 20.284L53.6456 20.572C53.5736 20.956 53.3576 21.472 52.9976 22.12C52.6376 22.744 52.2416 23.26 51.8096 23.668C51.3776 24.076 50.7416 24.46 49.9016 24.82C49.0616 25.156 48.1256 25.324 47.0936 25.324C45.1496 25.324 43.6736 24.868 42.6656 23.956C41.6816 23.02 41.1896 21.748 41.1896 20.14C41.1896 17.284 41.8976 15.052 43.3136 13.444C44.7296 11.812 46.6256 10.996 49.0016 10.996ZM52.6736 14.632C52.6736 13.84 52.4336 13.192 51.9536 12.688C51.4976 12.16 50.8016 11.896 49.8656 11.896C48.9536 11.896 48.0536 12.448 47.1656 13.552C46.3016 14.656 45.7256 16.288 45.4376 18.448C50.2616 18.424 52.6736 17.152 52.6736 14.632ZM63.3102 10.996C66.3582 10.996 67.8822 12.208 67.8822 14.632C67.8822 16.144 67.1622 17.296 65.7222 18.088C64.3062 18.856 62.2782 19.252 59.6382 19.276C59.5902 20.14 59.5662 20.824 59.5662 21.328C59.5662 22.408 59.8062 23.212 60.2862 23.74C60.7902 24.244 61.4142 24.496 62.1582 24.496C62.9022 24.496 63.5742 24.352 64.1742 24.064C64.7982 23.776 65.2902 23.44 65.6502 23.056C66.0102 22.648 66.3222 22.228 66.5862 21.796C67.0662 21.004 67.3062 20.5 67.3062 20.284L67.9542 20.572C67.8822 20.956 67.6662 21.472 67.3062 22.12C66.9462 22.744 66.5502 23.26 66.1182 23.668C65.6862 24.076 65.0502 24.46 64.2102 24.82C63.3702 25.156 62.4342 25.324 61.4022 25.324C59.4582 25.324 57.9822 24.868 56.9742 23.956C55.9902 23.02 55.4982 21.748 55.4982 20.14C55.4982 17.284 56.2062 15.052 57.6222 13.444C59.0382 11.812 60.9342 10.996 63.3102 10.996ZM66.9822 14.632C66.9822 13.84 66.7422 13.192 66.2622 12.688C65.8062 12.16 65.1102 11.896 64.1742 11.896C63.2622 11.896 62.3622 12.448 61.4742 13.552C60.6102 14.656 60.0342 16.288 59.7462 18.448C64.5702 18.424 66.9822 17.152 66.9822 14.632ZM72.0748 11.32L73.0468 5.992C74.8228 5.992 76.1428 5.92 77.0068 5.776L77.4748 5.668C77.1388 7.348 76.7668 9.232 76.3588 11.32H80.8228L80.7508 11.968H76.2508C75.0508 18.16 74.4508 21.892 74.4508 23.164C74.4508 23.932 74.8588 24.316 75.6748 24.316C76.4908 24.316 77.2348 23.8 77.9068 22.768C78.5788 21.736 79.0588 20.62 79.3468 19.42L79.9948 19.636C79.1068 23.428 77.2708 25.324 74.4868 25.324C73.3348 25.324 72.3748 25.012 71.6068 24.388C70.8388 23.74 70.4548 22.852 70.4548 21.724C70.4548 20.572 70.9468 17.32 71.9308 11.968H70.1668L70.2388 11.32H72.0748ZM88.1043 24.028C87.3843 24.892 86.4723 25.324 85.3683 25.324C84.2883 25.324 83.4483 25.048 82.8483 24.496C82.2483 23.944 81.9483 23.164 81.9483 22.156C81.9483 21.964 81.9843 21.604 82.0563 21.076C82.1523 20.548 82.7043 17.512 83.7123 11.968H82.2003L82.2723 11.32H83.8203C85.5963 11.32 86.9043 11.248 87.7443 11.104L88.2483 10.996L85.7643 24.604C86.4843 24.532 87.0843 24.196 87.5643 23.596L88.1043 24.028ZM87.1323 3.22L81.6963 9.304L80.9043 8.692L86.7723 2.212H87.7443L91.2003 8.908L90.3003 9.34L87.1323 3.22ZM91.7471 13.804C91.7471 16.084 92.9591 17.608 95.3831 18.376C96.3431 18.664 97.1351 18.832 97.7591 18.88C98.4071 18.904 98.7551 18.892 98.8031 18.844L98.8391 19.6H98.6231C95.9351 19.6 93.8951 18.928 92.5031 17.584C91.4951 16.648 90.9911 15.388 90.9911 13.804C90.9911 10.396 92.7911 7.756 96.3911 5.884C100.015 4.012 105.103 3.076 111.655 3.076C115.087 3.076 117.499 3.448 118.891 4.192C120.283 4.936 120.979 6.004 120.979 7.396C120.979 8.5 120.631 9.628 119.935 10.78C119.239 11.908 118.399 13.084 117.415 14.308C116.431 15.532 115.759 16.564 115.399 17.404H117.307L117.235 18.052H115.147C114.955 18.676 114.859 19.24 114.859 19.744H114.103C114.103 19.168 114.175 18.604 114.319 18.052H109.747L108.991 22.264C108.487 24.856 107.275 26.884 105.355 28.348C103.435 29.836 101.371 30.58 99.1631 30.58V29.86C100.795 29.836 101.839 29.488 102.295 28.816C102.775 28.144 103.243 26.5 103.699 23.884L104.671 18.052H102.835L102.907 17.404H104.779L107.119 3.976C102.199 4.384 98.4071 5.44 95.7431 7.144C93.0791 8.824 91.7471 11.044 91.7471 13.804ZM120.115 7.396C120.115 4.996 117.391 3.796 111.943 3.796C110.959 10.588 110.263 15.124 109.855 17.404H114.571C114.931 16.492 115.591 15.424 116.551 14.2C117.511 12.952 118.339 11.764 119.035 10.636C119.755 9.508 120.115 8.428 120.115 7.396ZM128.147 24.028C127.427 24.892 126.515 25.324 125.411 25.324C124.331 25.324 123.491 25.048 122.891 24.496C122.291 23.944 121.991 23.164 121.991 22.156C121.991 21.964 122.027 21.604 122.099 21.076C122.195 20.548 122.747 17.512 123.755 11.968H122.243L122.315 11.32H123.863C125.639 11.32 126.947 11.248 127.787 11.104L128.291 10.996L125.807 24.604C126.527 24.532 127.127 24.196 127.607 23.596L128.147 24.028ZM125.555 8.98L127.463 5.164L128.399 5.524L126.491 9.34L125.555 8.98Z" fill="#E24E42"/>
</g>
<defs>
<filter id="filter0_d" x="0.367188" y="0.636719" width="132.032" height="37.9433" filterUnits="userSpaceOnUse" color-interpolation-filters="sRGB">
<feFlood flood-opacity="0" result="BackgroundImageFix"/>
<feColorMatrix in="SourceAlpha" type="matrix" values="0 0 0 0 0 0 0 0 0 0 0 0 0 0 0 0 0 0 127 0"/>
<feOffset dy="4"/>
<feGaussianBlur stdDeviation="2"/>
<feColorMatrix type="matrix" values="0 0 0 0 0 0 0 0 0 0 0 0 0 0 0 0 0 0 0.25 0"/>
<feBlend mode="normal" in2="BackgroundImageFix" result="effect1_dropShadow"/>
<feBlend mode="normal" in="SourceGraphic" in2="effect1_dropShadow" result="shape"/>
</filter>
</defs>
</svg>
